<svg xmlns="http://www.w3.org/2000/svg" xml:space="preserve" id="Layer_1" x="0" y="0" style="enable-background:new 0 0 24 24" version="1.1" viewBox="0 0 24 24">
  <style>
    .st0{fill:none;stroke:#000;stroke-width:1.5;stroke-linecap:round;stroke-linejoin:round}
  </style>
  <path d="M16 9h3.8M16 12h3.8M16 15h3.8m-15.4.7h7.4c.6 0 1.1-.5 1.1-1.1V9.4c0-.6-.5-1.1-1.1-1.1H4.4c-.6 0-1.1.5-1.1 1.1v5.2c0 .6.5 1.1 1.1 1.1z" class="st0"/>
  <path d="M3.6 19.5h16.8c1.4 0 2.5-1 2.5-2.3V6.5c0-1.3-1.1-2.3-2.5-2.3H3.6c-1.4 0-2.5 1-2.5 2.3v10.7c0 1.3 1.1 2.3 2.5 2.3z" class="st0"/>
</svg>

