<?xml version="1.0" encoding="utf-8"?>
<!-- Generator: Adobe Illustrator 27.5.0, SVG Export Plug-In . SVG Version: 6.00 Build 0)  -->
<svg version="1.1" id="Layer_1" xmlns="http://www.w3.org/2000/svg" xmlns:xlink="http://www.w3.org/1999/xlink" x="0px" y="0px"
	 viewBox="0 0 208 61" style="enable-background:new 0 0 208 61;" xml:space="preserve">
<style type="text/css">
	.st0{fill:#FFFFFF;}
	.st1{fill:#1A1A1A;}
</style>
<path class="st0" d="M0,0v61h74.9c-0.6-0.4-1.1-0.9-1.6-1.3c-4.3-4.2-4.4-9.1-4.5-13.6V20.2h13.9v27.2c0,1.8,0.1,3.8,1.6,5.2
	c1.1,1.2,2.8,1.6,4.4,1.6c2.2,0,3.6-0.8,4.4-1.5c1.6-1.5,1.7-3.5,1.7-5.3V20.2h13.9v23.2c0,5,0,11.5-5.1,16.3
	c-0.5,0.5-1,0.9-1.6,1.3h20.8c-6.1-4.4-9-11.7-9-18.8c0-11.7,7.9-23.6,22.7-23.6c6.6,0,12.9,2.3,17.5,7c1.9,1.9,2.7,3.4,3.7,5.1
	l-11.6,5.7c-1.1-2.6-3.2-7.2-9-7.2c-3,0-5,1.4-5.9,2.3c-3.3,3.1-3.3,8.1-3.3,9.8c0,6.5,2.4,12.6,9.2,12.6c6.4,0,8.4-5.7,8.8-7.1
	l11.8,5.7c-1.1,2.1-2.2,4.1-4.3,6.2c-0.9,0.9-1.9,1.7-2.9,2.4h12.7V20.1h13.8v32.1h17.9V61h13.1V0H0z"/>
<path class="st1" d="M50.9,27.2c0,0.1,0.1,0.1,0.1,0.1v0.5c0,0.1-0.1,0.2-0.1,0.2c0,0,0,0,0,0v0.5l3.4-0.8h0l3.4,0.8V28c0,0,0,0,0,0
	c-0.1,0-0.1-0.1-0.1-0.2v-0.5c0,0,0.1,0,0.1-0.1c0-0.1,0.1-0.1,0.1-0.1c0,0,0,0,0,0v-0.1c0,0,0,0,0,0h-0.1c0,0,0,0,0,0v-0.1
	c0,0,0,0,0,0h-0.1c0,0,0,0,0,0v-0.1c0,0,0,0,0,0h-0.1c0,0,0,0-0.1-0.1c0-0.2,0.1-1.3-0.5-2.1c-0.5-0.7-1.1-1-1.5-1.2
	c0-0.1-0.2-0.2-0.3-0.2c0,0-0.1,0-0.1-0.1c0,0,0,0,0-0.1c0,0,0-0.1,0.1-0.1c0,0,0,0,0,0v-0.1c0,0,0,0,0,0c0,0-0.1,0-0.1,0
	c0,0,0,0,0,0v-0.1c0,0,0-0.1-0.1-0.1v-0.8c0,0,0,0,0,0h0c0,0,0,0,0,0v-0.1c0,0,0,0,0,0h0c0,0,0,0,0-0.1c0,0,0-0.1,0-0.1h0
	c0,0,0,0,0,0v-0.1c0,0,0,0,0,0h0c0,0,0,0-0.1,0c-0.1-0.1-0.3-0.3-0.3-0.3v0c0,0,0,0-0.1,0c0,0,0,0,0,0c0,0,0,0,0,0v-0.1
	c0,0-0.1-0.1-0.1-0.1h0c0,0-0.1,0.1-0.1,0.1v0.1c0,0,0,0,0,0c0,0,0,0,0,0c0,0-0.1,0-0.1,0c0,0,0,0,0,0c0,0-0.1,0.2-0.3,0.3
	c0,0,0,0,0,0h0c0,0,0,0,0,0v0.1c0,0,0,0,0,0h0c0,0,0,0,0,0.1c0,0,0,0.1,0,0.1h0c0,0,0,0,0,0v0.1c0,0,0,0,0,0c0,0,0,0,0,0
	c0,0,0,0,0,0v0.8c0,0-0.1,0-0.1,0.1v0.1c0,0,0,0,0,0c0,0-0.1,0-0.1,0c0,0,0,0,0,0v0.1c0,0,0,0,0,0c0.1,0,0.1,0,0.1,0.1
	c0,0,0,0,0,0.1c0,0,0,0.1-0.1,0.1c-0.1,0-0.3,0.1-0.3,0.2c-0.4,0.2-1,0.5-1.5,1.2c-0.6,0.8-0.5,1.9-0.5,2.1c0,0,0,0.1-0.1,0.1h-0.1
	c0,0,0,0,0,0v0.1c0,0,0,0,0,0H51c0,0,0,0,0,0v0.1c0,0,0,0,0,0h-0.1c0,0,0,0,0,0v0.1c0,0,0,0,0,0C50.9,27.1,50.9,27.1,50.9,27.2z"/>
<path class="st1" d="M61.6,37.8v-1H61v-0.5c0,0,0,0,0,0h-0.1c0,0,0,0,0,0c0,0,0,0,0,0v-0.1c0,0,0,0,0,0c0,0,0,0-0.1-0.1v-4.2
	c0,0,0,0,0,0h0c0,0,0,0,0,0v-0.1c0,0,0-0.1,0-0.1c0,0,0,0,0,0h0c0,0,0,0,0,0c0.1-0.1,0.1-0.2,0.1-0.3c0,0,0,0,0,0h0c0,0,0,0,0,0
	v-0.2h0.3c0,0,0,0,0,0l0.1-0.6c0.1-0.1,0.2-0.1,0.2-0.1h0l0.1-0.4c0,0,0,0,0,0c0,0-7.5-1.6-7.5-1.6s-7.5,1.6-7.5,1.6c0,0,0,0,0,0
	l0.1,0.4h0c0,0,0.1,0,0.2,0.1l0.1,0.6c0,0,0,0,0,0h0.3v0.2c0,0,0,0,0,0h0c0,0,0,0,0,0c0,0,0,0.2,0.1,0.3c0,0,0,0,0,0h0c0,0,0,0,0,0
	c0,0,0,0.1,0,0.1v0.1c0,0,0,0,0,0h0c0,0,0,0,0,0v4.2c0,0-0.1,0.1-0.1,0.1c0,0,0,0,0,0v0.1c0,0,0,0,0,0c0,0,0,0,0,0h-0.1c0,0,0,0,0,0
	v0.5H47v1h-0.6v1h15.7v-1H61.6z M59.9,31.3L59.9,31.3C59.9,31.3,59.9,31.3,59.9,31.3c0.1,0.1,0.1,0.2,0.2,0.3c0,0,0,0,0,0h0
	c0,0,0,0,0,0c0,0,0,0.1,0,0.1v0.1c0,0,0,0,0,0h0c0,0,0,0,0,0v4.2c0,0-0.1,0.1-0.1,0.1c0,0,0,0,0,0v0.1c0,0,0,0,0,0c0,0,0,0,0,0h-0.1
	c0,0,0,0,0,0v0.1h-1.3v-0.1c0,0,0,0,0,0h-0.1c0,0,0,0,0,0c0,0,0,0,0,0v-0.1c0,0,0,0,0,0c0,0,0,0-0.1-0.1v-4.2c0,0,0,0,0,0h0
	c0,0,0,0,0,0v-0.1c0,0,0-0.1,0-0.1c0,0,0,0,0,0h0c0,0,0,0,0,0c0.1-0.1,0.1-0.2,0.1-0.3c0,0,0,0,0,0h0c0,0,0,0,0,0v-0.2h1.3
	L59.9,31.3C59.8,31.3,59.9,31.3,59.9,31.3z M56.1,36.3L56.1,36.3C56,36.3,56,36.3,56.1,36.3C56,36.3,56,36.3,56.1,36.3L56.1,36.3
	C56,36.2,56,36.2,56,36.2c0,0,0,0-0.1-0.1v-4.2c0,0,0,0,0,0h0c0,0,0,0,0,0v-0.1c0,0,0-0.1,0-0.1c0,0,0,0,0,0h0c0,0,0,0,0,0
	c0.1-0.1,0.1-0.2,0.1-0.3c0,0,0,0,0,0h0c0,0,0,0,0,0v-0.2h1.3v0.2c0,0,0,0,0,0h0c0,0,0,0,0,0c0,0,0,0.2,0.1,0.3c0,0,0,0,0,0h0
	c0,0,0,0,0,0c0,0,0,0.1,0,0.1v0.1c0,0,0,0,0,0h0c0,0,0,0,0,0c0,0,0,0,0,0v4.2c0,0-0.1,0.1-0.1,0.1c0,0,0,0,0,0v0.1c0,0,0,0,0,0
	c0,0,0,0,0,0h-0.1c0,0,0,0,0,0v0.1h-1.3V36.3C56.1,36.3,56.1,36.3,56.1,36.3z M55,31.1v0.2c0,0,0,0,0,0h0c0,0,0,0,0,0
	c0,0,0,0.2,0.1,0.3c0,0,0,0,0,0h0c0,0,0,0,0,0c0,0,0,0.1,0,0.1v0.1c0,0,0,0,0,0h0c0,0,0,0,0,0v4.2c0,0-0.1,0.1-0.1,0.1c0,0,0,0,0,0
	v0.1c0,0,0,0,0,0c0,0,0,0,0,0H55c0,0,0,0,0,0v0.1h-1.3v-0.1c0,0,0,0,0,0h-0.1c0,0,0,0,0,0c0,0,0,0,0,0v-0.1c0,0,0,0,0,0
	c0,0,0,0-0.1-0.1v-4.2c0,0,0,0,0,0c0,0,0,0,0,0h0c0,0,0,0,0,0v-0.1c0,0,0-0.1,0-0.1c0,0,0,0,0,0h0c0,0,0,0,0,0
	c0.1-0.1,0.1-0.2,0.1-0.3c0,0,0,0,0,0h0c0,0,0,0,0,0v-0.2H55z M51.2,36.3L51.2,36.3C51.1,36.3,51.1,36.3,51.2,36.3
	C51.1,36.3,51.1,36.3,51.2,36.3L51.2,36.3c-0.1-0.1-0.1-0.1-0.1-0.1c0,0,0,0-0.1-0.1v-4.2c0,0,0,0,0,0h0c0,0,0,0,0,0v-0.1
	c0,0,0-0.1,0-0.1c0,0,0,0,0,0h0c0,0,0,0,0,0c0.1-0.1,0.1-0.2,0.1-0.3c0,0,0,0,0,0h0c0,0,0,0,0,0v-0.2h1.3v0.2c0,0,0,0,0,0h0
	c0,0,0,0,0,0c0,0,0,0.2,0.1,0.3c0,0,0,0,0,0h0c0,0,0,0,0,0c0,0,0,0.1,0,0.1v0.1c0,0,0,0,0,0h0c0,0,0,0,0,0v4.2c0,0-0.1,0.1-0.1,0.1
	c0,0,0,0,0,0v0.1c0,0,0,0,0,0s0,0,0,0h-0.1c0,0,0,0,0,0v0.1h-1.3V36.3C51.2,36.3,51.2,36.3,51.2,36.3z M50.1,31.1v0.2c0,0,0,0,0,0h0
	c0,0,0,0,0,0c0,0,0,0.2,0.1,0.3c0,0,0,0,0,0h0c0,0,0,0,0,0c0,0,0,0.1,0,0.1v0.1c0,0,0,0,0,0h0c0,0,0,0,0,0v4.2c0,0-0.1,0.1-0.1,0.1
	c0,0,0,0,0,0v0.1c0,0,0,0,0,0c0,0,0,0,0,0h-0.1c0,0,0,0,0,0v0.1h-1.3v-0.1c0,0,0,0,0,0h-0.1c0,0,0,0,0,0c0,0,0,0,0,0v-0.1
	c0,0,0,0,0,0c0,0,0,0-0.1-0.1v-4.2c0,0,0,0,0,0h0c0,0,0,0,0,0v-0.1c0,0,0-0.1,0-0.1c0,0,0,0,0,0h0c0,0,0,0,0,0
	c0.1-0.1,0.1-0.2,0.1-0.3c0,0,0,0,0,0h0c0,0,0,0,0,0v-0.2H50.1z"/>
</svg>
