<?xml version="1.0" encoding="utf-8"?>
<!-- Generator: Adobe Illustrator 27.9.0, SVG Export Plug-In . SVG Version: 6.00 Build 0)  -->
<svg version="1.1" id="Layer_1" xmlns="http://www.w3.org/2000/svg" xmlns:xlink="http://www.w3.org/1999/xlink" x="0px" y="0px"
	 viewBox="0 0 200 66" style="enable-background:new 0 0 200 66;" xml:space="preserve">
<style type="text/css">
	.st0{clip-path:url(#SVGID_00000062161221541329159470000004326906329235332238_);}
	.st1{fill:#FFFFFF;}
</style>
<g>
	<defs>
		<rect id="SVGID_1_" x="0" width="200" height="66"/>
	</defs>
	<clipPath id="SVGID_00000136392300912691498880000012262672098038205365_">
		<use xlink:href="#SVGID_1_"  style="overflow:visible;"/>
	</clipPath>
	<g style="clip-path:url(#SVGID_00000136392300912691498880000012262672098038205365_);">
		<path class="st1" d="M10.4,66.8c-0.9-0.7-1.8-1.3-2.5-2.1C1.1,58.1,1,50.4,0.8,43.3V2.5h21.8v42.8c0,2.9,0.1,5.9,2.5,8.2
			c1.8,1.8,4.4,2.5,6.9,2.5c3.4,0,5.6-1.3,6.9-2.4c2.5-2.4,2.6-5.4,2.6-8.3V2.5h22V39c0,7.9,0,18-8.1,25.7c-0.8,0.7-1.6,1.4-2.5,2.1
			h32.7C76,59.9,71.5,48.4,71.5,37.2C71.5,18.8,83.9,0,107.2,0c10.3,0,20.3,3.7,27.5,11.1c2.9,3,4.3,5.3,5.7,8l-18.2,9
			c-1.8-4.1-5.1-11.4-14.2-11.4c-4.8,0-7.8,2.2-9.3,3.7c-5.2,4.9-5.2,12.7-5.2,15.4c0,10.2,3.8,19.8,14.5,19.8
			c10.1,0,13.2-8.9,13.9-11.2l18.5,8.9c-1.8,3.3-3.4,6.4-6.7,9.7c-1.4,1.4-3,2.6-4.6,3.7h20V2.4h21.7V53H199v13.8H10.4z"/>
	</g>
</g>
</svg>
