<svg xmlns="http://www.w3.org/2000/svg" xmlns:xlink="http://www.w3.org/1999/xlink" xml:space="preserve" id="Layer_1" x="0" y="0" style="enable-background:new 0 0 233 66" version="1.1" viewBox="0 0 233 66">
  <style>
    .st1{fill:#fff}
  </style>
  <defs>
    <path id="SVGID_1_" d="M0 0h233v66H0z"/>
  </defs>
  <clipPath id="SVGID_00000119830789952513118450000011104260503516177576_">
    <use xlink:href="#SVGID_1_" style="overflow:visible"/>
  </clipPath>
  <g style="clip-path:url(#SVGID_00000119830789952513118450000011104260503516177576_)">
    <path d="M44.9 66.8c-.9-.7-1.8-1.3-2.5-2.1-6.8-6.6-6.9-14.3-7.1-21.4V2.5h21.8v42.8c0 2.9.1 5.9 2.5 8.2 1.8 1.8 4.4 2.5 6.9 2.5 3.4 0 5.6-1.3 6.9-2.4 2.5-2.4 2.6-5.4 2.6-8.3V2.5h22V39c0 7.9 0 18-8.1 25.7-.8.7-1.6 1.4-2.5 2.1h32.7c-9.6-6.9-14.1-18.4-14.1-29.6C106 18.8 118.4 0 141.7 0 152 0 162 3.7 169.2 11.1c2.9 3 4.3 5.3 5.7 8l-18.2 9c-1.8-4.1-5.1-11.4-14.2-11.4-4.8 0-7.8 2.2-9.3 3.7-5.2 4.9-5.2 12.7-5.2 15.4 0 10.2 3.8 19.8 14.5 19.8 10.1 0 13.2-8.9 13.9-11.2l18.5 8.9c-1.8 3.3-3.4 6.4-6.7 9.7-1.4 1.4-3 2.6-4.6 3.7h20V2.4h21.7V53h28.2v13.8H44.9zM7.1 13.6c0 .2.1.2.2.2v.8c0 .2-.1.2-.2.3v.8l5.4-1.2 5.4 1.2v-.8c-.1 0-.2-.1-.2-.3v-.8s.2 0 .2-.2c0-.1.1-.2.2-.2v-.2h-.2V13h-.2v-.2h-.1s-.1 0-.1-.1c0-.2.1-2-.8-3.3-.7-1.1-1.7-1.7-2.3-1.9 0-.2-.3-.3-.5-.4-.1 0-.1-.1-.1-.1v-.1c0-.1.1-.1.2-.1v-.5s0-.1-.1-.1h-.2s-.1 0-.1-.1 0-.1-.1-.1V4.6h.1v-.2h-.1V4h-.2c-.2-.2-.4-.4-.4-.5 0 0 0-.1-.1-.1s0-.1 0-.1v-.1l-.1-.2-.1.2v.2c-.1 0-.1 0-.1.1 0 0-.2.3-.4.5h-.2v.3h-.1v.1h.1V6s-.1 0-.1.1v.1s0 .1-.1.1h-.2s-.1 0-.1.1v.2c.1 0 .2 0 .2.1v.1c0 .1-.1.1-.1.1-.1 0-.5.1-.5.4-.6.3-1.6.8-2.3 1.9-.9 1.3-.8 3.1-.9 3.3 0 0 0 .1-.1.1h-.3v.2h-.2v.2h-.3v.2c.1.2.2.3.2.4z" class="st1"/>
    <path d="M23.9 30.4v-1.6H23V28h-.1v-.1l-.1-.1V21s-.1-.1 0-.1c.2-.1.2-.4.2-.4v-.4h.6l.2-1c.1-.2.3-.2.3-.2l.2-.6v-.1l-11.8-2.5L.6 17.9c-.1 0 0 .1 0 .1l.2.6s.2 0 .3.1l.2 1s0 .1.1.1h.5v.3H2v.1s0 .3.2.4v.1H2v6.9l-.1.1v1h-1v1.6H0V32h24.8v-1.6h-.9zm-2.7-10.3c.1 0 .1 0 .1.1 0 0 0 .3.2.4v7l-.1.1v.1h-.1v.2H19v-.1l-.1-.1V21s-.1-.1 0-.1c.2-.1.2-.4.2-.4v-.1h.1v-.3h2zm-6 7.8h-.1v-.1l-.1-.1v-6.9c.2-.1.2-.4.2-.4v-.1h.1V20h2v.3h.1v.1s0 .3.2.4v6.8l-.1.1v.1h-.1v.2h-2.1v-.1c-.1.1-.1 0-.1 0zm-1.8-8.1v.3h.1v.1s0 .3.2.4v7l-.1.1v.1h-.1v.2h-2.2v-.1l-.1-.1V21s-.1-.1 0-.1c.2-.1.2-.4.2-.4v-.1h.1v-.3h1.9zm-5.9 8.1h-.1v-.1l-.1-.1v-6.8h-.1v-.1c.2-.1.2-.4.2-.4v-.1h.1V20h2v.3h.1v.1s0 .3.2.4v6.8l-.1.1v.1h-.1v.2H7.5v-.1c0 .1 0 0 0 0zm-1.8-8.1v.3h.1v.1s0 .3.2.4v7l-.1.1v.1h-.2v.2H3.5v-.1l-.1-.1V21s-.1-.1 0-.1c.2-.1.2-.4.2-.4v-.1h.1v-.3h2z" class="st1"/>
  </g>
</svg>
