<?xml version="1.0" encoding="utf-8"?>
<!-- Generator: Adobe Illustrator 27.5.0, SVG Export Plug-In . SVG Version: 6.00 Build 0)  -->
<svg version="1.1" id="Layer_1" xmlns="http://www.w3.org/2000/svg" xmlns:xlink="http://www.w3.org/1999/xlink" x="0px" y="0px"
	 viewBox="0 0 24 24" style="enable-background:new 0 0 24 24;" xml:space="preserve">
<path d="M17.5,2.4H6.4c-2.2,0-4,1.8-4,4v11.1c0,2.2,1.8,4,4,4h11.1c2.2,0,4-1.8,4-4V6.4C21.5,4.2,19.7,2.4,17.5,2.4z M8.8,17.4H6.4
	V8.7h2.4V17.4z M7.6,7.7c-0.8,0-1.4-0.6-1.4-1.4s0.6-1.4,1.4-1.4S9,5.6,9,6.3S8.4,7.7,7.6,7.7z M18.3,17.4h-2.4V13
	c0-2.7-3.2-2.5-3.2,0v4.4h-2.4V8.7h2.4v1.4c1.1-2,5.5-2.2,5.5,2V17.4z"/>
</svg>
